<svg id="Layer_1" data-name="Layer 1" xmlns="http://www.w3.org/2000/svg" viewBox="0 0 327.3 115.3"><defs><style>.cls-1{fill:#171f28;}</style></defs><path class="cls-1" d="M54,58.4v-7h6V42.74A15.71,15.71,0,0,1,56,32.1a16.61,16.61,0,0,1,4-10.37V12.1H46v5.64A26.84,26.84,0,0,0,30,12.1c-15.7.1-30,16-30,33.2,0,17,14.1,33.1,30,33.1a26.55,26.55,0,0,0,16-5.54V78.4H60V70.63C56.35,67.23,54,63,54,58.4ZM46,45.84C45.9,57.32,39.46,64.4,30,64.4S14,57.1,14,45.3s6.5-19.2,16-19.2,16,7.3,16,19.2Z"/><path class="cls-1" d="M106.1,58.3V50.6C98.69,37.23,72,37.94,72,32.1c.1-3.7,3-6,10-6s10,2.3,10,6v7h14v-7a14.9,14.9,0,0,0-1-5.4H98.3V18A26.73,26.73,0,0,0,82,12.1c-11.6.1-24,9.3-24,20,.2,21.8,36,19.5,36,26.3,0,3.6-3.6,6-12,6s-12-2.5-12-6v-7H56v7c0,10.9,13.3,20,26,20,10.62.09,21.51-6.3,24.91-14.65A20.16,20.16,0,0,1,106.1,58.3Z"/><path class="cls-1" d="M122.1,26.7V58.2c.1,5.4,1,6.2,7.9,6.2h7v14h-7c-12.1,0-21.8-8.4-21.9-20.1V26.7h-7.8v-14h7.8V0h14V12.7h12.2v14H122.1Z"/><path class="cls-1" d="M151.18,44.89a30.68,30.68,0,0,1,26.74-27l0-5.76H174a37.53,37.53,0,0,0-21,6.21V12.1H139V78.4h7.28Z"/><path class="cls-1" d="M193.87,43.81l-4.64,0a2,2,0,0,1-2-2l0-4.63a2,2,0,0,0-2-2l-5,0a2,2,0,0,0-1.95,2l0,4.64a2,2,0,0,1-1.95,2l-4.64,0a2,2,0,0,0-1.95,2l0,5a2,2,0,0,0,2,2l4.63,0a2,2,0,0,1,2,2l0,4.64a2,2,0,0,0,2,2l5,0a2,2,0,0,0,2-2l0-4.64a2,2,0,0,1,2-2l4.63,0a2,2,0,0,0,2-2l0-5A2,2,0,0,0,193.87,43.81Z"/><circle class="cls-1" cx="288.71" cy="36.87" r="5.8"/><circle class="cls-1" cx="288.86" cy="58.28" r="5.8"/><circle class="cls-1" cx="299.49" cy="47.5" r="5.8"/><circle class="cls-1" cx="278.08" cy="47.65" r="5.8"/><path class="cls-1" d="M327.1,95.5l-8.34-51.8a30.68,30.68,0,0,0-27.12-26.64l-.05-7.41A3.54,3.54,0,0,0,288,6.15l-22.15.16a3.53,3.53,0,0,0-3.49,3.55l.06,7.2-53.36.38,0-7.2a3.53,3.53,0,0,0-3.55-3.49l-22.15.16a3.5,3.5,0,0,0-3.48,3.54l0,7.41a30.68,30.68,0,0,0-26.74,27L145.59,96.8a16.17,16.17,0,0,0,10.71,17.62,15.74,15.74,0,0,0,5.39.88,16.18,16.18,0,0,0,13.22-7l23.39-33a15.13,15.13,0,0,0,30.17-1.76l15.43-.11a15.12,15.12,0,0,0,30.18,1.33L298,107.41A16.16,16.16,0,0,0,327.3,98,15.57,15.57,0,0,0,327.1,95.5ZM183,69.92a21.55,21.55,0,1,1,21.39-21.7A21.55,21.55,0,0,1,183,69.92Zm30.76,14.15a11,11,0,1,1,10.88-11A10.95,10.95,0,0,1,213.73,84.07Zm13.9-37.14-5.46,0a1.28,1.28,0,0,1,0-2.55l5.46,0a1.28,1.28,0,1,1,0,2.55Zm11.21,16.25-5.47,0a1.28,1.28,0,0,1,0-2.55l5.47,0a1.28,1.28,0,1,1,0,2.55Zm5.51-16.37a1.28,1.28,0,1,1,0-2.55l5.45,0a1.28,1.28,0,1,1,0,2.55Zm15.28,36.93a11,11,0,1,1,10.88-11A11,11,0,0,1,259.63,83.74ZM289,69.12a21.55,21.55,0,1,1,21.39-21.7A21.55,21.55,0,0,1,289,69.12Z"/></svg>